<svg xmlns="http://www.w3.org/2000/svg" version="1.1" xmlns:xlink="http://www.w3.org/1999/xlink" xmlns:svgjs="http://svgjs.dev/svgjs" width="1440" height="560" preserveAspectRatio="none" viewBox="0 0 1440 560"><g mask="url(&quot;#SvgjsMask1074&quot;)" fill="none"><rect width="1440" height="560" x="0" y="0" fill="rgba(255, 247, 233, 1)"></rect><path d="M-50.37 495.6 a165.77 165.77 0 1 0 331.54 0 a165.77 165.77 0 1 0 -331.54 0z" fill="rgba(234, 144, 108, 1)" class="triangle-float1"></path><path d="M349.29 156.06 a110.4 110.4 0 1 0 220.8 0 a110.4 110.4 0 1 0 -220.8 0z" fill="rgba(234, 144, 108, 1)" class="triangle-float1"></path><path d="M921.16 34.53 a145.81 145.81 0 1 0 291.62 0 a145.81 145.81 0 1 0 -291.62 0z" fill="rgba(234, 144, 108, 1)" class="triangle-float2"></path><path d="M149.01 389.12 a104.42 104.42 0 1 0 208.84 0 a104.42 104.42 0 1 0 -208.84 0z" fill="rgba(234, 144, 108, 1)" class="triangle-float3"></path><path d="M796.1 328.86 a97.81 97.81 0 1 0 195.62 0 a97.81 97.81 0 1 0 -195.62 0z" fill="rgba(234, 144, 108, 1)" class="triangle-float3"></path></g><defs><mask id="SvgjsMask1074"><rect width="1440" height="560" fill="#ffffff"></rect></mask><style>
                @keyframes float1 {
                    0%{transform: translate(0, 0)}
                    50%{transform: translate(-10px, 0)}
                    100%{transform: translate(0, 0)}
                }

                .triangle-float1 {
                    animation: float1 5s infinite;
                }

                @keyframes float2 {
                    0%{transform: translate(0, 0)}
                    50%{transform: translate(-5px, -5px)}
                    100%{transform: translate(0, 0)}
                }

                .triangle-float2 {
                    animation: float2 4s infinite;
                }

                @keyframes float3 {
                    0%{transform: translate(0, 0)}
                    50%{transform: translate(0, -10px)}
                    100%{transform: translate(0, 0)}
                }

                .triangle-float3 {
                    animation: float3 6s infinite;
                }
            </style></defs></svg>