<?xml version="1.0" standalone="no"?>
<svg viewBox="0 0 200 200" xmlns="http://www.w3.org/2000/svg">
  <path fill="#FF773D" d="M36.8,-70.3C42.3,-60.5,37.8,-39.9,45.6,-26.3C53.3,-12.8,73.4,-6.4,81.5,4.6C89.5,15.7,85.5,31.4,77.8,45C70,58.6,58.6,70.2,45,73.9C31.4,77.6,15.7,73.5,6.3,62.5C-3.1,51.5,-6.1,33.7,-11.9,25.5C-17.6,17.2,-26,18.5,-33.1,15.9C-40.2,13.2,-45.9,6.6,-46.1,-0.1C-46.2,-6.8,-40.7,-13.6,-35,-18.5C-29.2,-23.4,-23.1,-26.4,-17.2,-36C-11.3,-45.6,-5.7,-61.8,5,-70.5C15.6,-79.1,31.3,-80.2,36.8,-70.3Z" transform="translate(100 100)" />
</svg>
