<svg id="visual" viewBox="0 0 900 600" width="900" height="600" xmlns="http://www.w3.org/2000/svg" xmlns:xlink="http://www.w3.org/1999/xlink" version="1.1"><rect x="0" y="0" width="900" height="600" fill="#FF773D"></rect><path d="M0 336L15 337.3C30 338.7 60 341.3 90 334C120 326.7 150 309.3 180 297.7C210 286 240 280 270 279.2C300 278.3 330 282.7 360 306.3C390 330 420 373 450 382C480 391 510 366 540 352.8C570 339.7 600 338.3 630 343.8C660 349.3 690 361.7 720 359.8C750 358 780 342 810 323C840 304 870 282 885 271L900 260L900 601L885 601C870 601 840 601 810 601C780 601 750 601 720 601C690 601 660 601 630 601C600 601 570 601 540 601C510 601 480 601 450 601C420 601 390 601 360 601C330 601 300 601 270 601C240 601 210 601 180 601C150 601 120 601 90 601C60 601 30 601 15 601L0 601Z" fill="#ffffff" stroke-linecap="round" stroke-linejoin="miter"></path></svg>