<svg id="visual" viewBox="0 0 900 600" width="900" height="600" xmlns="http://www.w3.org/2000/svg" xmlns:xlink="http://www.w3.org/1999/xlink" version="1.1"><rect x="0" y="0" width="900" height="600" fill="#FF773D"></rect><path d="M0 408L15 414C30 420 60 432 90 436.7C120 441.3 150 438.7 180 430C210 421.3 240 406.7 270 398.7C300 390.7 330 389.3 360 394.3C390 399.3 420 410.7 450 411.7C480 412.7 510 403.3 540 407.5C570 411.7 600 429.3 630 428.8C660 428.3 690 409.7 720 410.8C750 412 780 433 810 441.3C840 449.7 870 445.3 885 443.2L900 441L900 601L885 601C870 601 840 601 810 601C780 601 750 601 720 601C690 601 660 601 630 601C600 601 570 601 540 601C510 601 480 601 450 601C420 601 390 601 360 601C330 601 300 601 270 601C240 601 210 601 180 601C150 601 120 601 90 601C60 601 30 601 15 601L0 601Z" fill="#e2e2e2"></path><path d="M0 424L15 425.7C30 427.3 60 430.7 90 440.3C120 450 150 466 180 472.5C210 479 240 476 270 473.3C300 470.7 330 468.3 360 461C390 453.7 420 441.3 450 440.3C480 439.3 510 449.7 540 455.7C570 461.7 600 463.3 630 462C660 460.7 690 456.3 720 451.8C750 447.3 780 442.7 810 448.2C840 453.7 870 469.3 885 477.2L900 485L900 601L885 601C870 601 840 601 810 601C780 601 750 601 720 601C690 601 660 601 630 601C600 601 570 601 540 601C510 601 480 601 450 601C420 601 390 601 360 601C330 601 300 601 270 601C240 601 210 601 180 601C150 601 120 601 90 601C60 601 30 601 15 601L0 601Z" fill="#eaeaea"></path><path d="M0 485L15 486.7C30 488.3 60 491.7 90 495.3C120 499 150 503 180 504.7C210 506.3 240 505.7 270 501C300 496.3 330 487.7 360 485.3C390 483 420 487 450 483.8C480 480.7 510 470.3 540 472.7C570 475 600 490 630 495C660 500 690 495 720 496.7C750 498.3 780 506.7 810 511.3C840 516 870 517 885 517.5L900 518L900 601L885 601C870 601 840 601 810 601C780 601 750 601 720 601C690 601 660 601 630 601C600 601 570 601 540 601C510 601 480 601 450 601C420 601 390 601 360 601C330 601 300 601 270 601C240 601 210 601 180 601C150 601 120 601 90 601C60 601 30 601 15 601L0 601Z" fill="#f2f2f2"></path><path d="M0 544L15 538.5C30 533 60 522 90 521.3C120 520.7 150 530.3 180 528.2C210 526 240 512 270 505.7C300 499.3 330 500.7 360 508C390 515.3 420 528.7 450 530.2C480 531.7 510 521.3 540 521.8C570 522.3 600 533.7 630 532C660 530.3 690 515.7 720 513.2C750 510.7 780 520.3 810 522C840 523.7 870 517.3 885 514.2L900 511L900 601L885 601C870 601 840 601 810 601C780 601 750 601 720 601C690 601 660 601 630 601C600 601 570 601 540 601C510 601 480 601 450 601C420 601 390 601 360 601C330 601 300 601 270 601C240 601 210 601 180 601C150 601 120 601 90 601C60 601 30 601 15 601L0 601Z" fill="#f4f4f4"></path><path d="M0 548L15 551.7C30 555.3 60 562.7 90 566.3C120 570 150 570 180 564.5C210 559 240 548 270 544.2C300 540.3 330 543.7 360 548.7C390 553.7 420 560.3 450 559.8C480 559.3 510 551.7 540 551.2C570 550.7 600 557.3 630 557.8C660 558.3 690 552.7 720 550.3C750 548 780 549 810 551.8C840 554.7 870 559.3 885 561.7L900 564L900 601L885 601C870 601 840 601 810 601C780 601 750 601 720 601C690 601 660 601 630 601C600 601 570 601 540 601C510 601 480 601 450 601C420 601 390 601 360 601C330 601 300 601 270 601C240 601 210 601 180 601C150 601 120 601 90 601C60 601 30 601 15 601L0 601Z" fill="#f6f6f6"></path></svg>