<svg xmlns="http://www.w3.org/2000/svg" version="1.1" xmlns:xlink="http://www.w3.org/1999/xlink" xmlns:svgjs="http://svgjs.dev/svgjs" viewBox="0 0 2400 800" opacity="1"><defs><linearGradient x1="50%" y1="0%" x2="50%" y2="100%" id="sssurf-grad"><stop stop-color="hsl(18, 100%, 62%)" stop-opacity="1" offset="0%"></stop><stop stop-color="hsl(30, 100%, 70%)" stop-opacity="1" offset="100%"></stop></linearGradient></defs><g fill="url(#sssurf-grad)" transform="matrix(1,0,0,1,9.9305419921875,307.0171928405762)"><path d="M-10,10C27.797619047619044,11.25,97.91666666666666,19.958333333333332,171.42857142857142,16C244.94047619047618,12.041666666666668,271.42857142857144,-11.291666666666666,342.85714285714283,-9C414.2857142857142,-6.708333333333334,442.8571428571428,29.083333333333332,514.2857142857142,27C585.7142857142857,24.916666666666668,614.2857142857142,-20.458333333333332,685.7142857142857,-19C757.1428571428571,-17.541666666666668,785.7142857142857,33.166666666666664,857.1428571428571,34C928.5714285714286,34.833333333333336,957.142857142857,-14.375,1028.5714285714284,-15C1099.9999999999998,-15.625,1128.5714285714287,30.166666666666668,1200,31C1271.4285714285713,31.833333333333332,1300,-11.208333333333334,1371.4285714285713,-11C1442.8571428571427,-10.791666666666666,1471.4285714285713,31.166666666666668,1542.8571428571427,32C1614.285714285714,32.833333333333336,1642.857142857143,-8.666666666666666,1714.2857142857142,-7C1785.7142857142856,-5.333333333333334,1814.2857142857142,38.75,1885.7142857142856,40C1957.1428571428569,41.25,1985.7142857142856,-0.5833333333333334,2057.142857142857,-1C2128.5714285714284,-1.4166666666666665,2157.142857142857,36.125,2228.5714285714284,38C2300,39.875,2312.2023809523807,-67.41666666666667,2400,8C2487.7976190476193,83.41666666666667,3254.1666666666665,214.16666666666669,2650,400C2045.8333333333335,585.8333333333333,156.25,795.8333333333334,-500,900" transform="matrix(1,0,0,1,0,35)" opacity="0.05"></path><path d="M-10,10C27.797619047619044,11.25,97.91666666666666,19.958333333333332,171.42857142857142,16C244.94047619047618,12.041666666666668,271.42857142857144,-11.291666666666666,342.85714285714283,-9C414.2857142857142,-6.708333333333334,442.8571428571428,29.083333333333332,514.2857142857142,27C585.7142857142857,24.916666666666668,614.2857142857142,-20.458333333333332,685.7142857142857,-19C757.1428571428571,-17.541666666666668,785.7142857142857,33.166666666666664,857.1428571428571,34C928.5714285714286,34.833333333333336,957.142857142857,-14.375,1028.5714285714284,-15C1099.9999999999998,-15.625,1128.5714285714287,30.166666666666668,1200,31C1271.4285714285713,31.833333333333332,1300,-11.208333333333334,1371.4285714285713,-11C1442.8571428571427,-10.791666666666666,1471.4285714285713,31.166666666666668,1542.8571428571427,32C1614.285714285714,32.833333333333336,1642.857142857143,-8.666666666666666,1714.2857142857142,-7C1785.7142857142856,-5.333333333333334,1814.2857142857142,38.75,1885.7142857142856,40C1957.1428571428569,41.25,1985.7142857142856,-0.5833333333333334,2057.142857142857,-1C2128.5714285714284,-1.4166666666666665,2157.142857142857,36.125,2228.5714285714284,38C2300,39.875,2312.2023809523807,-67.41666666666667,2400,8C2487.7976190476193,83.41666666666667,3254.1666666666665,214.16666666666669,2650,400C2045.8333333333335,585.8333333333333,156.25,795.8333333333334,-500,900" transform="matrix(1,0,0,1,0,70)" opacity="1.00"></path></g></svg>