<?xml version="1.0" standalone="no"?><svg xmlns="http://www.w3.org/2000/svg" viewBox="0 0 1440 320"><path fill="#FFF7E9" fill-opacity="1" d="M0,256L40,256C80,256,160,256,240,245.3C320,235,400,213,480,218.7C560,224,640,256,720,234.7C800,213,880,139,960,106.7C1040,75,1120,85,1200,74.7C1280,64,1360,32,1400,16L1440,0L1440,320L1400,320C1360,320,1280,320,1200,320C1120,320,1040,320,960,320C880,320,800,320,720,320C640,320,560,320,480,320C400,320,320,320,240,320C160,320,80,320,40,320L0,320Z"></path></svg>